<?xml version="1.0" encoding="utf-8"?>
<!-- Generator: Adobe Illustrator 23.0.2, SVG Export Plug-In . SVG Version: 6.00 Build 0)  -->
<svg version="1.1" id="Calque_1" xmlns="http://www.w3.org/2000/svg" xmlns:xlink="http://www.w3.org/1999/xlink" x="0px" y="0px"
	 viewBox="0 0 1000 454.64" style="enable-background:new 0 0 1000 454.64;" xml:space="preserve">
<style type="text/css">
	.st0{clip-path:url(#SVGID_1_);fill:#944018;}
	.st1{clip-path:url(#SVGID_1_);fill:#CD5725;}
	.st2{clip-path:url(#SVGID_1_);fill:#C65424;}
</style>
<g>
	<defs>
		<path id="SVGID_3_" d="M693.88,6.93L789.01,62l-280,93.58l110.03,63.69l279.98-93.57l95.14,55.07l-280,93.58l225.41,130.5
			l-128.29,42.88l-430.6-249.25l-280,93.58L5.55,236.98L693.88,6.93z"/>
	</defs>
	<clipPath id="SVGID_1_">
		<use xlink:href="#SVGID_3_"  style="overflow:visible;"/>
	</clipPath>
	<polygon class="st0" points="693.88,6.93 789.01,62 795.35,560.93 700.23,505.85 	"/>
	<polygon class="st1" points="5.55,236.98 693.88,6.93 700.23,505.85 11.89,735.9 	"/>
	<polygon class="st2" points="700.23,505.85 795.35,560.93 515.35,654.5 625.38,718.19 905.36,624.62 1000.5,679.69 720.5,773.27 
		945.91,903.76 817.62,946.64 387.02,697.39 107.02,790.97 11.89,735.9 	"/>
	<polygon class="st1" points="789.01,62 795.35,560.93 515.35,654.5 509.01,155.58 	"/>
	<polygon class="st0" points="899.02,125.69 994.16,180.77 1000.5,679.69 905.36,624.62 	"/>
	<polygon class="st0" points="509.01,155.58 619.04,219.27 625.38,718.19 515.35,654.5 	"/>
	<polygon class="st1" points="619.04,219.27 899.02,125.69 905.36,624.62 625.38,718.19 	"/>
	<polygon class="st1" points="994.16,180.77 1000.5,679.69 720.5,773.27 714.16,274.34 	"/>
	<polygon class="st1" points="380.68,198.47 387.02,697.39 107.02,790.97 100.68,292.04 	"/>
	<polygon class="st0" points="100.68,292.04 107.02,790.97 11.89,735.9 5.55,236.98 	"/>
	<polygon class="st0" points="714.16,274.34 939.57,404.84 945.91,903.76 720.5,773.27 	"/>
	<polygon class="st0" points="811.28,447.72 817.62,946.64 387.02,697.39 380.68,198.47 	"/>
	<polygon class="st1" points="939.57,404.84 945.91,903.76 817.62,946.64 811.28,447.72 	"/>
</g>
</svg>
